<?xml version="1.0" encoding="UTF-8"?>
<svg version="1.1" xmlns="http://www.w3.org/2000/svg" width="300" height="300">
<path d="M0 0 C1.09803955 -0.01023193 2.1960791 -0.02046387 3.32739258 -0.03100586 C10.00532243 0.04176286 15.28590875 0.97666765 21.5 3.4375 C21.5 4.4275 21.5 5.4175 21.5 6.4375 C20.819375 6.829375 20.13875 7.22125 19.4375 7.625 C11.10942762 12.76359785 5.35288939 22.71215707 -0.5 30.4375 C0.17804688 30.7778125 0.85609375 31.118125 1.5546875 31.46875 C12.10696981 36.9641214 20.49733358 44.26294241 29.0546875 52.43359375 C31.35203569 54.3162449 32.60407873 55.06709146 35.5 55.4375 C36.32065069 53.56605305 37.1311584 51.69015664 37.9375 49.8125 C38.38996094 48.76835938 38.84242188 47.72421875 39.30859375 46.6484375 C42.93320412 36.87981546 41.58414213 27.39300034 39.5 17.4375 C45.5400787 18.58303217 49.07454797 19.91146952 53.5 24.4375 C56.90624308 29.60470648 58.28090177 33.91275313 59.125 40 C59.97839865 45.82764383 59.97839865 45.82764383 61.55859375 51.48828125 C64.46923931 60.6066937 63.29914621 71.19477347 59.15625 79.69921875 C50.38768289 94.1963073 35.30764317 101.43875072 20.5 108.4375 C20.974375 109.63375 21.44875 110.83 21.9375 112.0625 C26.86475469 124.48775095 25.14770996 140.53876324 22.5 153.4375 C20.92578125 156.90234375 20.92578125 156.90234375 19.5 159.4375 C16.51297182 159.12171856 14.95712355 158.95397091 12.92602539 156.65917969 C12.48766357 155.90024414 12.04930176 155.14130859 11.59765625 154.359375 C10.85032227 153.11220703 10.85032227 153.11220703 10.08789062 151.83984375 C9.58451172 150.96457031 9.08113281 150.08929688 8.5625 149.1875 C5.11974106 143.26151236 2.21859697 138.35769682 -3.5 134.4375 C-6.72433127 133.563562 -6.72433127 133.563562 -9.5 133.4375 C-9.46519531 134.12457031 -9.43039063 134.81164062 -9.39453125 135.51953125 C-9.36746094 136.42058594 -9.34039062 137.32164062 -9.3125 138.25 C-9.27769531 139.14332031 -9.24289063 140.03664062 -9.20703125 140.95703125 C-9.5 143.4375 -9.5 143.4375 -10.82421875 145.19921875 C-12.5 146.4375 -12.5 146.4375 -15.5 147.4375 C-15.17 147.7675 -14.84 148.0975 -14.5 148.4375 C-14.42773498 150.29037502 -14.4161878 152.14583878 -14.4375 154 C-14.44652344 155.01191406 -14.45554688 156.02382812 -14.46484375 157.06640625 C-14.48224609 158.24009766 -14.48224609 158.24009766 -14.5 159.4375 C-13.05367188 159.35048828 -13.05367188 159.35048828 -11.578125 159.26171875 C-10.31484375 159.21660156 -9.0515625 159.17148438 -7.75 159.125 C-6.49703125 159.06699219 -5.2440625 159.00898438 -3.953125 158.94921875 C-0.5 159.4375 -0.5 159.4375 1.921875 161.36328125 C4.11095306 165.62764867 4.08685365 169.21121407 4 173.9375 C4.02320313 175.20013672 4.02320313 175.20013672 4.046875 176.48828125 C4.0215985 180.50092551 3.77256133 182.9363183 1.828125 186.51171875 C-1.08694592 188.92301063 -2.51859638 188.97210736 -6.25 188.75 C-7.23484375 188.70488281 -8.2196875 188.65976563 -9.234375 188.61328125 C-9.98203125 188.55527344 -10.7296875 188.49726563 -11.5 188.4375 C-11.5 189.0975 -11.5 189.7575 -11.5 190.4375 C-10.50419922 190.35048828 -10.50419922 190.35048828 -9.48828125 190.26171875 C-8.60527344 190.21660156 -7.72226563 190.17148438 -6.8125 190.125 C-5.50732422 190.03798828 -5.50732422 190.03798828 -4.17578125 189.94921875 C-0.14434223 190.68488281 1.14068613 192.11187141 3.5 195.4375 C4.19400904 198.79243402 4.15403995 202.02330743 4.0625 205.4375 C4.07345703 206.32695312 4.08441406 207.21640625 4.09570312 208.1328125 C4.05164738 212.06845946 4.00261927 214.54663235 2.03038025 218.04232788 C-1.64222739 221.5186937 -4.6284889 221.14214801 -9.51953125 221.08447266 C-10.43052582 221.09323425 -11.34152039 221.10199585 -12.28012085 221.11102295 C-15.29139842 221.13302943 -18.30120751 221.11845962 -21.3125 221.1015625 C-23.40470665 221.10493027 -25.49691138 221.10978256 -27.58911133 221.11605835 C-31.97398505 221.12343139 -36.35834953 221.11270999 -40.74316406 221.08935547 C-46.366018 221.06086781 -51.98767875 221.07726942 -57.61048889 221.10721779 C-61.93079634 221.1252789 -66.25082053 221.11953811 -70.57113647 221.10657883 C-72.64440044 221.10324155 -74.71769006 221.10734316 -76.79092407 221.11897659 C-79.68813261 221.13166552 -82.58340462 221.11233551 -85.48046875 221.08447266 C-86.33877289 221.09459381 -87.19707703 221.10471497 -88.08139038 221.11514282 C-93.88547043 221.01164243 -93.88547043 221.01164243 -97.03491211 218.06918335 C-98.70773058 215.06436122 -98.97954223 213.29163013 -98.875 209.875 C-98.86210938 208.94558594 -98.84921875 208.01617187 -98.8359375 207.05859375 C-98.48763117 204.34099434 -98.08882583 202.6689401 -96.5 200.4375 C-95.18 200.1075 -93.86 199.7775 -92.5 199.4375 C-92.5 193.4975 -92.5 187.5575 -92.5 181.4375 C-94.48 180.4475 -94.48 180.4475 -96.5 179.4375 C-98.82613583 175.94829626 -98.74247293 174.48797454 -98.6875 170.375 C-98.68105469 169.31152344 -98.67460938 168.24804688 -98.66796875 167.15234375 C-98.5 164.4375 -98.5 164.4375 -97.5 162.4375 C-97.22134114 158.86801271 -97.05271521 155.29868321 -96.87890625 151.72265625 C-96.5 148.4375 -96.5 148.4375 -94.5 145.4375 C-93.51 145.4375 -92.52 145.4375 -91.5 145.4375 C-91.5 138.8375 -91.5 132.2375 -91.5 125.4375 C-93.48 124.9425 -93.48 124.9425 -95.5 124.4375 C-95.83 122.4575 -96.16 120.4775 -96.5 118.4375 C-97.61375 118.355 -98.7275 118.2725 -99.875 118.1875 C-108.29303884 117.09793114 -115.17715217 114.12518061 -120.5 107.4375 C-121.4375 104.6875 -121.4375 104.6875 -121.5 102.4375 C-121.17 101.7775 -120.84 101.1175 -120.5 100.4375 C-120.27532169 98.90081135 -120.09203195 97.35781946 -119.9375 95.8125 C-119.85371094 94.99523437 -119.76992187 94.17796875 -119.68359375 93.3359375 C-119.59271484 92.39621094 -119.59271484 92.39621094 -119.5 91.4375 C-118.18 91.7675 -116.86 92.0975 -115.5 92.4375 C-114.84 89.7975 -114.18 87.1575 -113.5 84.4375 C-114.16 84.4375 -114.82 84.4375 -115.5 84.4375 C-115.83 86.4175 -116.16 88.3975 -116.5 90.4375 C-119.86179774 88.99672954 -122.09156268 87.18999979 -124.5 84.4375 C-124.5 83.7775 -124.5 83.1175 -124.5 82.4375 C-125.7375 82.623125 -125.7375 82.623125 -127 82.8125 C-134.57568582 82.00081938 -140.62674368 74.9342706 -145.5 69.4375 C-147.77144557 66.30600878 -149.80248826 63.05381241 -151.8125 59.75 C-152.33650391 58.90888672 -152.86050781 58.06777344 -153.40039062 57.20117188 C-159.79366631 46.87861023 -159.79366631 46.87861023 -159.9375 41.9375 C-159.97746094 41.1846875 -160.01742187 40.431875 -160.05859375 39.65625 C-159.16601572 36.11090512 -157.63161202 35.31416456 -154.5 33.4375 C-150.74664898 32.14476818 -146.93232457 31.24847302 -143.0625 30.375 C-141.93924316 30.11750977 -140.81598633 29.86001953 -139.65869141 29.59472656 C-120.52084107 25.33226674 -101.58759887 23.93410841 -82.04052734 23.17089844 C-80.80323128 23.11866875 -80.80323128 23.11866875 -79.54093933 23.06538391 C-77.99557195 23.00075944 -76.44991374 22.94259064 -74.90400696 22.89250183 C-66.52640967 22.53437617 -59.81963726 21.15855748 -52.875 16.25 C-36.28904896 5.05770703 -20.02689014 0.14480658 0 0 Z M49.5 53.4375 C47.9221875 54.1490625 47.9221875 54.1490625 46.3125 54.875 C43.39824149 56.13073741 40.65253086 56.95984381 37.5 57.4375 C37.5 57.7675 37.5 58.0975 37.5 58.4375 C41.90914783 59.53978696 45.98382401 59.51404536 50.5 59.4375 C51.1814823 57.54570797 51.1814823 57.54570797 51.5 55.4375 C50.84 54.7775 50.18 54.1175 49.5 53.4375 Z M-44.5 133.4375 C-43.5 136.4375 -43.5 136.4375 -43.5 136.4375 Z M-46.5 186.4375 C-46.83 186.7675 -47.16 187.0975 -47.5 187.4375 C-49.34891946 187.67113881 -51.20488031 187.85053635 -53.0625 188 C-54.58037109 188.12568359 -54.58037109 188.12568359 -56.12890625 188.25390625 C-56.91136719 188.31449219 -57.69382812 188.37507812 -58.5 188.4375 C-58.5 189.0975 -58.5 189.7575 -58.5 190.4375 C-57.46939453 190.52837891 -57.46939453 190.52837891 -56.41796875 190.62109375 C-55.06638672 190.74677734 -55.06638672 190.74677734 -53.6875 190.875 C-52.79417969 190.95621094 -51.90085937 191.03742188 -50.98046875 191.12109375 C-48.5 191.4375 -48.5 191.4375 -45.5 192.4375 C-45.5 190.4575 -45.5 188.4775 -45.5 186.4375 C-45.83 186.4375 -46.16 186.4375 -46.5 186.4375 Z " fill="#FAFAFA" transform="translate(198.5,36.5625)"/>
<path d="M0 0 C1.09803955 -0.01023193 2.1960791 -0.02046387 3.32739258 -0.03100586 C10.00532243 0.04176286 15.28590875 0.97666765 21.5 3.4375 C21.5 4.4275 21.5 5.4175 21.5 6.4375 C20.819375 6.829375 20.13875 7.22125 19.4375 7.625 C11.10942762 12.76359785 5.35288939 22.71215707 -0.5 30.4375 C0.17804688 30.7778125 0.85609375 31.118125 1.5546875 31.46875 C12.10696981 36.9641214 20.49733358 44.26294241 29.0546875 52.43359375 C31.35203569 54.3162449 32.60407873 55.06709146 35.5 55.4375 C36.32065069 53.56605305 37.1311584 51.69015664 37.9375 49.8125 C38.38996094 48.76835938 38.84242188 47.72421875 39.30859375 46.6484375 C42.93320412 36.87981546 41.58414213 27.39300034 39.5 17.4375 C45.5400787 18.58303217 49.07454797 19.91146952 53.5 24.4375 C56.90624308 29.60470648 58.28090177 33.91275313 59.125 40 C59.97839865 45.82764383 59.97839865 45.82764383 61.55859375 51.48828125 C64.46923931 60.6066937 63.29914621 71.19477347 59.15625 79.69921875 C50.38768289 94.1963073 35.30764317 101.43875072 20.5 108.4375 C20.974375 109.63375 21.44875 110.83 21.9375 112.0625 C26.86475469 124.48775095 25.14770996 140.53876324 22.5 153.4375 C20.92578125 156.90234375 20.92578125 156.90234375 19.5 159.4375 C16.49463358 159.12203006 14.9490179 158.93922306 12.89428711 156.64331055 C12.4431958 155.87801025 11.99210449 155.11270996 11.52734375 154.32421875 C11.02009766 153.48826172 10.51285156 152.65230469 9.99023438 151.79101562 C9.47783203 150.91123047 8.96542969 150.03144531 8.4375 149.125 C7.40983273 147.39682545 6.37741962 145.67146252 5.33984375 143.94921875 C4.88988037 143.18053467 4.43991699 142.41185059 3.97631836 141.61987305 C2.5257592 139.32343382 2.5257592 139.32343382 0.32250977 137.28051758 C-1.5 135.4375 -1.5 135.4375 -1.5 133.4375 C-0.51 132.7775 0.48 132.1175 1.5 131.4375 C2.89195693 127.26162922 2.72400286 123.31151815 2.75 118.9375 C2.770625 118.06996094 2.79125 117.20242187 2.8125 116.30859375 C2.81765625 115.47457031 2.8228125 114.64054687 2.828125 113.78125 C2.84214355 112.63946289 2.84214355 112.63946289 2.85644531 111.47460938 C2.63120834 109.38094341 2.63120834 109.38094341 1.33959961 107.69799805 C-1.22800343 105.93867031 -3.16495604 106.00437929 -6.26171875 105.92578125 C-7.37998047 105.89033203 -8.49824219 105.85488281 -9.65039062 105.81835938 C-10.81763672 105.79580078 -11.98488281 105.77324219 -13.1875 105.75 C-14.36634766 105.71583984 -15.54519531 105.68167969 -16.75976562 105.64648438 C-19.67308225 105.56392075 -22.58609466 105.49479678 -25.5 105.4375 C-27.24733008 102.4070015 -27.75593644 100.21236789 -27.765625 96.7265625 C-27.76949219 95.81841797 -27.77335938 94.91027344 -27.77734375 93.97460938 C-27.76832031 93.01361328 -27.75929687 92.05261719 -27.75 91.0625 C-27.74613281 90.07314453 -27.74226562 89.08378906 -27.73828125 88.06445312 C-27.66061495 81.44987359 -27.04924273 75.21715085 -25.95703125 68.6953125 C-25.0742059 62.40235233 -24.05461428 55.05981361 -26.45703125 49.0390625 C-29.31665034 46.7972961 -31.50686242 46.9074668 -35.0703125 47.07324219 C-39.0845424 47.67505398 -42.40977271 49.22668692 -46 51.0625 C-46.74193604 51.42496826 -47.48387207 51.78743652 -48.24829102 52.16088867 C-52.17282991 54.11691228 -55.85203787 56.21269436 -59.4375 58.75 C-68.52342033 65.15025482 -78.81211992 65.45288666 -89.5 63.8125 C-95.43838122 62.47007159 -100.28369831 59.47644657 -105.5 56.4375 C-130.13397476 42.75276819 -130.13397476 42.75276819 -157.5 37.4375 C-157.17 36.4475 -156.84 35.4575 -156.5 34.4375 C-154.10138948 33.44378993 -151.86447526 32.68989527 -149.375 32 C-148.63378906 31.78827148 -147.89257812 31.57654297 -147.12890625 31.35839844 C-131.30333341 27.03938981 -114.78452098 24.65254139 -98.40625 23.97265625 C-96.69920542 23.89416966 -94.99217454 23.81538456 -93.28515625 23.73632812 C-90.63928641 23.61681981 -87.99337614 23.4997202 -85.34716797 23.38793945 C-82.76232278 23.27742066 -80.17808518 23.15695226 -77.59375 23.03515625 C-76.81535767 23.00486832 -76.03696533 22.97458038 -75.23498535 22.94337463 C-66.73447128 22.52843602 -59.9314758 21.23760638 -52.875 16.25 C-36.28904896 5.05770703 -20.02689014 0.14480658 0 0 Z M49.5 53.4375 C47.9221875 54.1490625 47.9221875 54.1490625 46.3125 54.875 C43.39824149 56.13073741 40.65253086 56.95984381 37.5 57.4375 C37.5 57.7675 37.5 58.0975 37.5 58.4375 C41.90914783 59.53978696 45.98382401 59.51404536 50.5 59.4375 C51.1814823 57.54570797 51.1814823 57.54570797 51.5 55.4375 C50.84 54.7775 50.18 54.1175 49.5 53.4375 Z " fill="#6C7580" transform="translate(198.5,36.5625)"/>
<path d="M0 0 C21.80427482 1.25449252 40.22278286 11.42049877 58.45703125 22.625 C67.72209525 27.6346813 79.70562352 28.57954916 89.875 26 C95.29196268 24.19434577 99.83880264 21.12656982 104.62890625 18.07421875 C112.54390008 13.20415881 120.49418408 8.34025436 130 10 C132.74000926 12.63888414 133.89033246 14.27229079 134.4609375 18.05859375 C134.31061978 23.96881339 133.96927022 29.6633076 133 35.5 C131.97289373 41.89573974 131.8082824 48.15099031 131.8125 54.625 C131.8115332 56.06649414 131.8115332 56.06649414 131.81054688 57.53710938 C131.84179214 61.53934356 131.88991191 65.13213197 133 69 C132.40985107 69.00410889 131.81970215 69.00821777 131.21166992 69.01245117 C128.53592984 69.04536148 125.86247525 69.11599621 123.1875 69.1875 C122.25873047 69.19330078 121.32996094 69.19910156 120.37304688 69.20507812 C117.81806815 69.28809187 115.48720141 69.4044729 113 70 C110.91829857 72.39430739 110.91829857 72.39430739 110 75 C109.34 75 108.68 75 108 75 C108 74.34 108 73.68 108 73 C99.1130755 69.35846842 90.28286248 69.65172505 80.875 69.8125 C79.33074227 69.82757938 77.78647024 69.84126201 76.2421875 69.85351562 C72.49448985 69.88625143 68.74733891 69.93785243 65 70 C63.51829318 72.83863833 62.69467869 75.05321308 62.375 78.25 C62.189375 80.10625 62.189375 80.10625 62 82 C54.09509537 81.41445151 46.3924744 79.60333949 40.4375 74.0625 C38.10690844 71.13432086 37.10263119 69.69472267 37 66 C37.33 65.34 37.66 64.68 38 64 C38.22467831 62.46331135 38.40796805 60.92031946 38.5625 59.375 C38.64628906 58.55773437 38.73007813 57.74046875 38.81640625 56.8984375 C38.87699219 56.27195313 38.93757813 55.64546875 39 55 C40.32 55.33 41.64 55.66 43 56 C43.66 53.36 44.32 50.72 45 48 C44.34 48 43.68 48 43 48 C42.67 49.98 42.34 51.96 42 54 C38.63820226 52.55922954 36.40843732 50.75249979 34 48 C34 47.34 34 46.68 34 46 C32.7625 46.185625 32.7625 46.185625 31.5 46.375 C23.92431418 45.56331938 17.87325632 38.4967706 13 33 C10.72855443 29.86850878 8.69751174 26.61631241 6.6875 23.3125 C6.16349609 22.47138672 5.63949219 21.63027344 5.09960938 20.76367188 C-1.28111589 10.4613741 -1.28111589 10.4613741 -1.1875 5.3125 C-1.18105469 4.52488281 -1.17460938 3.73726563 -1.16796875 2.92578125 C-1 1 -1 1 0 0 Z " fill="#B8C2C6" transform="translate(40,73)"/>
<path d="M0 0 C4.26829471 -0.12456859 8.53559796 -0.2147864 12.80517578 -0.2746582 C14.25425674 -0.29964236 15.70321375 -0.33364269 17.15185547 -0.37719727 C32.80446058 -0.83566433 32.80446058 -0.83566433 39 5 C42.27422314 8.68350104 42.45542534 12.1497398 42.296875 16.90625 C41.90771328 19.65086424 41.07440072 21.16495321 39 23 C38.34 23 37.68 23 37 23 C37 23.66 37 24.32 37 25 C37.639375 25.28875 38.27875 25.5775 38.9375 25.875 C41 27 41 27 42 29 C42.43011819 33.21019538 42.4699635 36.88692855 40.8125 40.8125 C38.28549495 43.86233368 35.55081434 46.22459283 32 48 C29.59161322 48.08639869 27.21266119 48.11567764 24.8046875 48.09765625 C24.09724396 48.0962413 23.38980042 48.09482635 22.66091919 48.09336853 C20.39890331 48.087766 18.13698602 48.07521318 15.875 48.0625 C14.34244935 48.05748532 12.80989714 48.05292236 11.27734375 48.04882812 C7.51819112 48.03779577 3.75911228 48.02052952 0 48 C0 45.03 0 42.06 0 39 C1.65 39 3.3 39 5 39 C5 29.1 5 19.2 5 9 C3.35 9 1.7 9 0 9 C0 6.03 0 3.06 0 0 Z " fill="#373737" transform="translate(108,148)"/>
<path d="M0 0 C13.86 0 27.72 0 42 0 C42 5.61 42 11.22 42 17 C38.37 17 34.74 17 31 17 C31 14.69 31 12.38 31 10 C26.71 10 22.42 10 18 10 C18 12.97 18 15.94 18 19 C21.3 19 24.6 19 28 19 C28 22.3 28 25.6 28 29 C24.7 29 21.4 29 18 29 C18 32.63 18 36.26 18 40 C22.29 40 26.58 40 31 40 C31 37.03 31 34.06 31 31 C34.96 31 38.92 31 43 31 C43 36.94 43 42.88 43 49 C28.81 49 14.62 49 0 49 C0 46.03 0 43.06 0 40 C1.98 40 3.96 40 6 40 C6 30.1 6 20.2 6 10 C4.02 10 2.04 10 0 10 C0 6.7 0 3.4 0 0 Z " fill="#3A3A3A" transform="translate(106,202)"/>
<path d="M0 0 C13.86 0 27.72 0 42 0 C42 5.61 42 11.22 42 17 C38.04 17 34.08 17 30 17 C30 14.69 30 12.38 30 10 C25.71 10 21.42 10 17 10 C17 12.97 17 15.94 17 19 C20.3 19 23.6 19 27 19 C27 22.3 27 25.6 27 29 C23.7 29 20.4 29 17 29 C17 32.63 17 36.26 17 40 C21.29 40 25.58 40 30 40 C30 37.03 30 34.06 30 31 C33.96 31 37.92 31 42 31 C42 36.94 42 42.88 42 49 C28.14 49 14.28 49 0 49 C0 46.03 0 43.06 0 40 C1.65 40 3.3 40 5 40 C5 30.1 5 20.2 5 10 C3.35 10 1.7 10 0 10 C0 6.7 0 3.4 0 0 Z " fill="#3A3A3A" transform="translate(154,202)"/>
<path d="M0 0 C13.2 0 26.4 0 40 0 C40 5.28 40 10.56 40 16 C36.37 16 32.74 16 29 16 C29 13.69 29 11.38 29 9 C24.71 9 20.42 9 16 9 C16 12.63 16 16.26 16 20 C19.63 20 23.26 20 27 20 C27 22.97 27 25.94 27 29 C23.37 29 19.74 29 16 29 C16 32.63 16 36.26 16 40 C17.98 40 19.96 40 22 40 C22 42.64 22 45.28 22 48 C14.41 48 6.82 48 -1 48 C-1 45.03 -1 42.06 -1 39 C0.98 39 2.96 39 5 39 C5 29.1 5 19.2 5 9 C3.35 9 1.7 9 0 9 C0 6.03 0 3.06 0 0 Z " fill="#323232" transform="translate(156,148)"/>
<path d="M0 0 C-0.86625 0.4125 -1.7325 0.825 -2.625 1.25 C-7.03380937 4.08869094 -8.51194933 8.75531665 -10.5078125 13.41796875 C-12 16 -12 16 -13.9921875 16.98828125 C-16 17 -16 17 -19 15 C-18.938125 16.27875 -18.87625 17.5575 -18.8125 18.875 C-18.70703125 21.0546875 -18.70703125 21.0546875 -19 23 C-19.99 23.66 -20.98 24.32 -22 25 C-24.31 23.35 -26.62 21.7 -29 20 C-29 23.3 -29 26.6 -29 30 C-34.03985731 29.55530671 -36.37634988 27.28656638 -40 24 C-40.33 26.97 -40.66 29.94 -41 33 C-42.98 33.495 -42.98 33.495 -45 34 C-46.921875 32.78515625 -46.921875 32.78515625 -48.75 31.0625 C-49.36359375 30.49660156 -49.9771875 29.93070313 -50.609375 29.34765625 C-51.06828125 28.90292969 -51.5271875 28.45820313 -52 28 C-54.35953094 30.35953094 -54.49141413 31.77895617 -55 35 C-56.875 34.6875 -56.875 34.6875 -59 34 C-61 31 -61 31 -61 28 C-63.66735273 30.48952921 -65.55746343 32.63408134 -67 36 C-71 31.375 -71 31.375 -71 28 C-73.78388975 29.70625501 -74.85384206 30.47626739 -75.75 33.6875 C-75.8325 34.450625 -75.915 35.21375 -76 36 C-75.34 36.33 -74.68 36.66 -74 37 C-76.64 37 -79.28 37 -82 37 C-81.67 33.04 -81.34 29.08 -81 25 C-79.02 25.66 -77.04 26.32 -75 27 C-75 26.34 -75 25.68 -75 25 C-74.01 24.67 -73.02 24.34 -72 24 C-71.67 23.34 -71.34 22.68 -71 22 C-69.35965807 21.27095914 -67.68698082 20.61344757 -66 20 C-65.175 19.566875 -64.35 19.13375 -63.5 18.6875 C-61 18 -61 18 -58.1875 19.375 C-57.465625 19.91125 -56.74375 20.4475 -56 21 C-56 18.36 -56 15.72 -56 13 C-54.68 13 -53.36 13 -52 13 C-49.875 15.4375 -49.875 15.4375 -48 18 C-47.34 18.33 -46.68 18.66 -46 19 C-46.495 15.04 -46.495 15.04 -47 11 C-45.02 11 -43.04 11 -41 11 C-40.505 12.485 -40.505 12.485 -40 14 C-37.50240018 15.69882448 -37.50240018 15.69882448 -35 17 C-35 14.36 -35 11.72 -35 9 C-29.58461538 8.63076923 -29.58461538 8.63076923 -26.625 10.5 C-26.08875 10.995 -25.5525 11.49 -25 12 C-25.020625 11.195625 -25.04125 10.39125 -25.0625 9.5625 C-25 7 -25 7 -24 6 C-19.96839809 5.73706944 -18.44107266 5.70595156 -15 8 C-14.67 6.35 -14.34 4.7 -14 3 C-12.04486839 2.303447 -10.08577524 1.61800435 -8.125 0.9375 C-7.03445312 0.55464844 -5.94390625 0.17179687 -4.8203125 -0.22265625 C-2 -1 -2 -1 0 0 Z " fill="#521B1B" transform="translate(160,103)"/>
<path d="M0 0 C0.50855261 7.9476129 -3.54134204 15.0511663 -8.25 21.3125 C-25.60942841 38.27739594 -48.06370645 38.29285337 -70.83984375 38.0703125 C-72.5599144 38.04827998 -74.27997587 38.02540656 -76 38 C-76.171875 31.2421875 -76.171875 31.2421875 -74.625 29.0625 C-73 28 -73 28 -71 28 C-70.525625 28.969375 -70.05125 29.93875 -69.5625 30.9375 C-68.29806053 33.80477437 -68.29806053 33.80477437 -67 35 C-66.566875 34.030625 -66.13375 33.06125 -65.6875 32.0625 C-64 29 -64 29 -61 28 C-60.566875 28.969375 -60.13375 29.93875 -59.6875 30.9375 C-58.2985139 34.27731765 -58.2985139 34.27731765 -55 35 C-55.0825 34.236875 -55.165 33.47375 -55.25 32.6875 C-55 30 -55 30 -53 28.1875 C-52.34 27.795625 -51.68 27.40375 -51 27 C-50.29423828 27.6496875 -50.29423828 27.6496875 -49.57421875 28.3125 C-48.95160156 28.869375 -48.32898438 29.42625 -47.6875 30 C-47.07261719 30.556875 -46.45773438 31.11375 -45.82421875 31.6875 C-43.96868665 33.29201498 -43.96868665 33.29201498 -41 33 C-40.67 30.03 -40.34 27.06 -40 24 C-36 26 -36 26 -34.5 27.5625 C-32.83978847 29.39148463 -32.83978847 29.39148463 -29 30 C-29 26.7 -29 23.4 -29 20 C-26.33333333 21.33333333 -23.66666667 22.66666667 -21 24 C-19.50256881 22.50256881 -19.66797307 21.01175761 -19.4375 18.9375 C-19.293125 17.638125 -19.14875 16.33875 -19 15 C-17.02 15.33 -15.04 15.66 -13 16 C-12.32904297 14.64455078 -12.32904297 14.64455078 -11.64453125 13.26171875 C-11.03456901 12.06994637 -10.42385182 10.87856016 -9.8125 9.6875 C-9.22082031 8.51574219 -8.62914062 7.34398438 -8.01953125 6.13671875 C-6.19119114 3.29695645 -3.79908567 0 0 0 Z " fill="#A84A49" transform="translate(160,103)"/>
<path d="M0 0 C1.68577711 0.61674772 3.35448038 1.28272222 5 2 C7.6635704 2.45561073 10.30885778 2.72632452 13 3 C11.48837671 7.08138288 8.69609063 9.82004411 5 12 C2.13364091 12.61086341 -0.12903031 12.92083723 -3 13 C-3.70125 13.05027344 -4.4025 13.10054687 -5.125 13.15234375 C-12.76313708 13.49333201 -20.26634977 11.61011551 -27 8 C-27 7.67 -27 7.34 -27 7 C-26.3709375 6.91363281 -25.741875 6.82726562 -25.09375 6.73828125 C-20.41460893 5.97016924 -16.83183221 5.15217025 -12.9375 2.375 C-8.68239639 -0.54500025 -5.03966228 -0.75886806 0 0 Z " fill="#616871" transform="translate(123,73)"/>
<path d="M0 0 C0.50855261 7.9476129 -3.54134204 15.0511663 -8.25 21.3125 C-13.2809893 26.22914863 -19.20047199 30.89751436 -26 33 C-26.99 32.67 -27.98 32.34 -29 32 C-29 28.04 -29 24.08 -29 20 C-26.33333333 21.33333333 -23.66666667 22.66666667 -21 24 C-19.50256881 22.50256881 -19.66797307 21.01175761 -19.4375 18.9375 C-19.293125 17.638125 -19.14875 16.33875 -19 15 C-16.03 15.495 -16.03 15.495 -13 16 C-12.32904297 14.64455078 -12.32904297 14.64455078 -11.64453125 13.26171875 C-11.03456901 12.06994637 -10.42385182 10.87856016 -9.8125 9.6875 C-8.92498047 7.92986328 -8.92498047 7.92986328 -8.01953125 6.13671875 C-6.19119114 3.29695645 -3.79908567 0 0 0 Z " fill="#AD4D4C" transform="translate(160,103)"/>
<path d="M0 0 C-0.31728444 3.00396716 -0.57558684 4.58030255 -2.7578125 6.73828125 C-7.96309409 10.19987941 -13.28283705 13.40956399 -18.75 16.4375 C-19.37535645 16.79175049 -20.00071289 17.14600098 -20.64501953 17.51098633 C-24.56672872 19.61134425 -27.55574905 20.66341717 -32 20 C-36 15.15789474 -36 15.15789474 -36 12 C-34.85337891 11.77957031 -34.85337891 11.77957031 -33.68359375 11.5546875 C-23.85774322 9.49728919 -13.86949776 6.60173726 -5.25 1.3125 C-3 0 -3 0 0 0 Z " fill="#505863" transform="translate(249,123)"/>
<path d="M0 0 C0.474375 0.969375 0.94875 1.93875 1.4375 2.9375 C2.70193947 5.80477437 2.70193947 5.80477437 4 7 C4.433125 6.030625 4.86625 5.06125 5.3125 4.0625 C7 1 7 1 10 0 C10.28875 0.94875 10.5775 1.8975 10.875 2.875 C13.34837262 6.51231267 14.05128805 6.57934961 18.1875 7.375 C19.78818595 7.60857649 21.39185505 7.82500486 23 8 C21 10 21 10 18.38623047 10.22705078 C17.30744629 10.21657715 16.22866211 10.20610352 15.1171875 10.1953125 C13.95058594 10.18886719 12.78398438 10.18242187 11.58203125 10.17578125 C10.35871094 10.15902344 9.13539062 10.14226562 7.875 10.125 C6.64394531 10.11597656 5.41289063 10.10695312 4.14453125 10.09765625 C1.09616185 10.07402548 -1.95182382 10.04108054 -5 10 C-5.171875 3.2421875 -5.171875 3.2421875 -3.625 1.0625 C-2 0 -2 0 0 0 Z " fill="#A25F55" transform="translate(89,131)"/>
<path d="M0 0 C8.3984375 -0.1953125 8.3984375 -0.1953125 11 0 C13 2 13 2 13.25 5.5 C13 9 13 9 11 11 C7.31975395 11.27629475 3.69505443 11.0859315 0 11 C0 7.37 0 3.74 0 0 Z " fill="#F9F9F9" transform="translate(125,176)"/>
<path d="M0 0 C1.79133978 -0.05391993 3.58313899 -0.09275571 5.375 -0.125 C6.37273437 -0.14820313 7.37046875 -0.17140625 8.3984375 -0.1953125 C11 0 11 0 13 2 C12.42307692 8.57692308 12.42307692 8.57692308 11 10 C9.14712498 10.07226502 7.29166122 10.0838122 5.4375 10.0625 C4.42558594 10.05347656 3.41367188 10.04445312 2.37109375 10.03515625 C1.58863281 10.02355469 0.80617188 10.01195312 0 10 C0 6.7 0 3.4 0 0 Z " fill="#F9F9F9" transform="translate(125,157)"/>
<path d="M0 0 C0 3 0 3 -1 5 C-0.34 5.33 0.32 5.66 1 6 C-3.1994963 9.77954667 -7.55983818 13.21367821 -13 15 C-13.99 14.67 -14.98 14.34 -16 14 C-16 10.04 -16 6.08 -16 2 C-13.33333333 3.33333333 -10.66666667 4.66666667 -8 6 C-5.36 4.02 -2.72 2.04 0 0 Z " fill="#9F4845" transform="translate(147,121)"/>
<path d="M0 0 C5.61758986 0.40125642 8.12582134 2.12582134 12 6 C12 6.99 12 7.98 12 9 C8.8125 9.8125 8.8125 9.8125 5 10 C2.0625 7.875 2.0625 7.875 0 5 C-0.3125 2.1875 -0.3125 2.1875 0 0 Z " fill="#69727D" transform="translate(81,90)"/>
<path d="M0 0 C5.67632355 1.95735295 9.23787679 6.9118783 12 12 C11.01 13.485 11.01 13.485 10 15 C9.34 14.67 8.68 14.34 8 14 C8 13.01 8 12.02 8 11 C7.40703125 10.90589844 6.8140625 10.81179687 6.203125 10.71484375 C3.50857359 9.84054781 2.53677244 8.73279682 0.75 6.5625 C-0.03117188 5.63630859 -0.03117188 5.63630859 -0.828125 4.69140625 C-2 3 -2 3 -2 1 C-1.34 0.67 -0.68 0.34 0 0 Z " fill="#575E69" transform="translate(199,169)"/>
<path d="M0 0 C0.99 0.33 1.98 0.66 3 1 C2.01 2.485 2.01 2.485 1 4 C1.66 4.33 2.32 4.66 3 5 C-1.78942167 6.96489094 -6.86861454 8.10091543 -12 7 C-14.2734375 4.9765625 -14.2734375 4.9765625 -16 3 C-14.39318359 2.80083984 -14.39318359 2.80083984 -12.75390625 2.59765625 C-11.35674231 2.4194944 -9.95960841 2.24109681 -8.5625 2.0625 C-7.85544922 1.97548828 -7.14839844 1.88847656 -6.41992188 1.79882812 C-2.91182032 1.61783809 -2.91182032 1.61783809 0 0 Z " fill="#141517" transform="translate(123,79)"/>
<path d="M0 0 C0.57524414 0.3079248 1.15048828 0.61584961 1.74316406 0.93310547 C3.89168789 1.94879664 5.79953725 2.54534938 8.109375 3.0703125 C9.24052734 3.33134766 9.24052734 3.33134766 10.39453125 3.59765625 C11.17183594 3.77167969 11.94914062 3.94570312 12.75 4.125 C13.93916016 4.39763672 13.93916016 4.39763672 15.15234375 4.67578125 C17.10052366 5.12175014 19.05012731 5.56149151 21 6 C21 7.32 21 8.64 21 10 C14.08364774 9.48767761 6.65946929 8.07746219 1.20703125 3.4921875 C0 2 0 2 0 0 Z " fill="#A0AAAE" transform="translate(81,145)"/>
<path d="M0 0 C2.85276981 2.43013725 2.98452213 2.84006198 3.375 6.875 C3.18113187 11.67764224 1.57353149 14.47891956 -1.875 17.8125 C-4.42757056 19.23893649 -6.1197285 19.24002263 -9 19 C-7.35941749 17.35941749 -5.74217876 15.78184357 -3.96875 14.28125 C-1.51135374 11.43379084 -1.23244727 9.44876239 -0.75 5.75 C-0.52570313 4.13351563 -0.52570313 4.13351563 -0.296875 2.484375 C-0.19890625 1.66453125 -0.1009375 0.8446875 0 0 Z " fill="#903A3A" transform="translate(215,92)"/>
<path d="M0 0 C0 2.31 0 4.62 0 7 C-1.0725 6.62875 -2.145 6.2575 -3.25 5.875 C-6.81629347 4.68508268 -6.81629347 4.68508268 -9.4375 5.875 C-9.953125 6.24625 -10.46875 6.6175 -11 7 C-11.33 6.34 -11.66 5.68 -12 5 C-14.52733235 4.34444881 -14.52733235 4.34444881 -17 4 C-17 3.34 -17 2.68 -17 2 C-14.91727106 1.66291092 -12.83378963 1.33046884 -10.75 1 C-9.58984375 0.814375 -8.4296875 0.62875 -7.234375 0.4375 C-4 0 -4 0 0 0 Z " fill="#A1695A" transform="translate(104,117)"/>
<path d="M0 0 C-1.59720719 4.3124594 -4.31633819 6.42143673 -8 9 C-10.375 8.8125 -10.375 8.8125 -12 8 C-11.8125 5.125 -11.8125 5.125 -11 2 C-7.43483742 -0.24095934 -4.12944888 -0.19206739 0 0 Z " fill="#494F58" transform="translate(136,76)"/>
<path d="M0 0 C-0.33 0.66 -0.66 1.32 -1 2 C-2.32 2 -3.64 2 -5 2 C-5.33 2.99 -5.66 3.98 -6 5 C-9.41557141 6.80266269 -12.16865501 7.218934 -16 7 C-16 6.34 -16 5.68 -16 5 C-15.34 5 -14.68 5 -14 5 C-13.67 3.68 -13.34 2.36 -13 1 C-4.57142857 -1.42857143 -4.57142857 -1.42857143 0 0 Z " fill="#505863" transform="translate(252,87)"/>
<path d="M0 0 C2.31 0 4.62 0 7 0 C7.33 1.32 7.66 2.64 8 4 C6.68 4 5.36 4 4 4 C3.67 4.99 3.34 5.98 3 7 C2.01 7 1.02 7 0 7 C-0.33 7.66 -0.66 8.32 -1 9 C-1.125 2.25 -1.125 2.25 0 0 Z " fill="#D2C2A1" transform="translate(85,121)"/>
<path d="M0 0 C4.0084034 2.0042017 5.41409657 3.49055963 8 7 C4.91190305 8.76462683 3.76687864 9 0 9 C0 6.03 0 3.06 0 0 Z " fill="#C3B18B" transform="translate(120,127)"/>
<path d="M0 0 C3.56311466 1.78155733 5.35645475 3.16763009 8 6 C4.93882432 8.62386487 4.26826873 9 0 9 C0 6.03 0 3.06 0 0 Z " fill="#C2B089" transform="translate(131,123)"/>
<path d="M0 0 C-0.99 0.66 -1.98 1.32 -3 2 C-2.34 2.66 -1.68 3.32 -1 4 C-6.41390868 3.53328373 -10.20517932 2.75702189 -15 0 C-15 -0.33 -15 -0.66 -15 -1 C-9.20858017 -2.01603857 -5.5415502 -1.96263236 0 0 Z " fill="#4A525D" transform="translate(111,81)"/>
<path d="M0 0 C1.98 1.65 3.96 3.3 6 5 C5 7 5 7 4 8 C2.00041636 8.04080783 -0.00045254 8.04254356 -2 8 C-2.125 5.125 -2.125 5.125 -2 2 C-1.34 1.34 -0.68 0.68 0 0 Z " fill="#C8B78F" transform="translate(108,130)"/>
<path d="M0 0 C1.25664978 2.90600261 2 4.79604584 2 8 C-0.31 8 -2.62 8 -5 8 C-5.36625971 3.48279689 -5.36625971 3.48279689 -3.625 1.1875 C-2 0 -2 0 0 0 Z " fill="#CBBB92" transform="translate(89,131)"/>
<path d="M0 0 C0.33 0 0.66 0 1 0 C1 1.65 1 3.3 1 5 C2.98 5 4.96 5 7 5 C7.33 4.34 7.66 3.68 8 3 C13.94 3.99 13.94 3.99 20 5 C20 5.33 20 5.66 20 6 C13.26614928 7.68346268 6.75105368 7.12517561 0 6 C0 4.02 0 2.04 0 0 Z " fill="#A16158" transform="translate(105,133)"/>
<path d="M0 0 C2.7972908 2.06756277 3.02692273 3.14440371 3.6875 6.6875 C3.790625 7.780625 3.89375 8.87375 4 10 C4.99 10 5.98 10 7 10 C7 10.99 7 11.98 7 13 C5.35 12.67 3.7 12.34 2 12 C1.47026689 10.37787941 0.95146893 8.75218416 0.4375 7.125 C0.14746094 6.22007812 -0.14257812 5.31515625 -0.44140625 4.3828125 C-1 2 -1 2 0 0 Z " fill="#565E68" transform="translate(211,183)"/>
<path d="M0 0 C0 2.64 0 5.28 0 8 C-2.4375 7.25 -2.4375 7.25 -5 6 C-5.625 3.9375 -5.625 3.9375 -6 2 C-6.99 1.67 -7.98 1.34 -9 1 C-1.125 0 -1.125 0 0 0 Z " fill="#BCA988" transform="translate(125,112)"/>
<path d="M0 0 C2.31 0 4.62 0 7 0 C7.33 2.31 7.66 4.62 8 7 C4.51866169 5.60746468 3.52113967 4.36823784 2 1 C1.34 0.67 0.68 0.34 0 0 Z " fill="#C1AE8C" transform="translate(106,115)"/>
<path d="M0 0 C2.97 0.495 2.97 0.495 6 1 C5.34 1.66 4.68 2.32 4 3 C3.85482256 5.9093558 3.81369204 8.719946 3.875 11.625 C3.88853516 12.82769531 3.88853516 12.82769531 3.90234375 14.0546875 C3.92593777 16.03658523 3.96180935 18.01832981 4 20 C3.67 20 3.34 20 3 20 C2.01 13.4 1.02 6.8 0 0 Z " fill="#A4ACB5" transform="translate(238,54)"/>
<path d="M0 0 C0.33 0 0.66 0 1 0 C1.66964286 7.76785714 1.66964286 7.76785714 -1.25 11.4375 C-3.88840752 13.8960161 -4.67485839 14.3818647 -8 15 C-7.59007812 14.50371094 -7.18015625 14.00742188 -6.7578125 13.49609375 C-3.23945432 9.06026897 -1.15643261 5.55087651 0 0 Z " fill="#963A39" transform="translate(226,99)"/>
<path d="M0 0 C4.53030991 0.53297764 7.45025069 2.16020055 11 5 C12.375 7.75 12.375 7.75 13 10 C11.453125 8.8553125 11.453125 8.8553125 9.875 7.6875 C6.72582739 5.42984469 3.52287088 3.63254992 0 2 C0 1.34 0 0.68 0 0 Z " fill="#BDC7CB" transform="translate(81,87)"/>
<path d="M0 0 C4.875 3.625 4.875 3.625 6 7 C5.01 8.485 5.01 8.485 4 10 C3.34 9.67 2.68 9.34 2 9 C2 8.01 2 7.02 2 6 C1.34 5.67 0.68 5.34 0 5 C0 3.35 0 1.7 0 0 Z " fill="#49515D" transform="translate(205,174)"/>
<path d="M0 0 C5.94 0.99 5.94 0.99 12 2 C11.67 3.32 11.34 4.64 11 6 C8.03 5.01 5.06 4.02 2 3 C2 2.34 2 1.68 2 1 C1.34 0.67 0.68 0.34 0 0 Z " fill="#89969A" transform="translate(90,149)"/>
<path d="M0 0 C0.66 0.33 1.32 0.66 2 1 C1.125 6.75 1.125 6.75 0 9 C-0.66 9 -1.32 9 -2 9 C-2 9.99 -2 10.98 -2 12 C-2.99 11.67 -3.98 11.34 -5 11 C-3.35 7.37 -1.7 3.74 0 0 Z " fill="#A1AAB3" transform="translate(238,83)"/>
<path d="M0 0 C0.66 0 1.32 0 2 0 C2.33 1.98 2.66 3.96 3 6 C1.35 6.33 -0.3 6.66 -2 7 C-2.125 4.625 -2.125 4.625 -2 2 C-1.34 1.34 -0.68 0.68 0 0 Z " fill="#D1C099" transform="translate(97,131)"/>
<path d="M0 0 C-1.78881736 1.00508801 -3.58114696 2.00392736 -5.375 3 C-6.37273437 3.556875 -7.37046875 4.11375 -8.3984375 4.6875 C-11 6 -11 6 -13 6 C-13 5.34 -13 4.68 -13 4 C-11.59248779 3.13083113 -10.1735479 2.28014851 -8.75 1.4375 C-7.96109375 0.96183594 -7.1721875 0.48617187 -6.359375 -0.00390625 C-3.69155375 -1.13022151 -2.65498232 -1.0169313 0 0 Z " fill="#636A73" transform="translate(238,135)"/>
<path d="M0 0 C-4.02167317 2.96837781 -7.00088076 4.52389341 -12 5 C-12 4.01 -12 3.02 -12 2 C-10.37787941 1.47026689 -8.75218416 0.95146893 -7.125 0.4375 C-6.22007812 0.14746094 -5.31515625 -0.14257812 -4.3828125 -0.44140625 C-2 -1 -2 -1 0 0 Z " fill="#AD4546" transform="translate(143,131)"/>
<path d="M0 0 C1.98 0.99 1.98 0.99 4 2 C4 3.32 4 4.64 4 6 C2.68 6.33 1.36 6.66 0 7 C0 4.69 0 2.38 0 0 Z " fill="#CFC198" transform="translate(141,118)"/>
<path d="M0 0 C2.475 0.99 2.475 0.99 5 2 C4.67 3.32 4.34 4.64 4 6 C3.01 6 2.02 6 1 6 C0.67 6.66 0.34 7.32 0 8 C0 5.36 0 2.72 0 0 Z " fill="#D1C2A2" transform="translate(79,128)"/>
<path d="M0 0 C5.62917348 0.40208382 8.00386479 2.28930302 12 6 C11.67 6.99 11.34 7.98 11 9 C10.29875 8.21625 9.5975 7.4325 8.875 6.625 C5.90842914 3.91639182 3.8417484 2.98277285 0 2 C0 1.34 0 0.68 0 0 Z " fill="#424A55" transform="translate(81,90)"/>
<path d="M0 0 C0.33 0.99 0.66 1.98 1 3 C-0.65 4.65 -2.3 6.3 -4 8 C-4.33 6.68 -4.66 5.36 -5 4 C-3.35 2.68 -1.7 1.36 0 0 Z " fill="#666D76" transform="translate(253,118)"/>
<path d="M0 0 C1.65 0 3.3 0 5 0 C5.125 2.875 5.125 2.875 5 6 C4.34 6.66 3.68 7.32 3 8 C2.34 6.35 1.68 4.7 1 3 C0.34 3 -0.32 3 -1 3 C-0.67 2.01 -0.34 1.02 0 0 Z " fill="#616872" transform="translate(247,88)"/>
<path d="M0 0 C0 1.65 0 3.3 0 5 C-2.66666667 3.66666667 -5.33333333 2.33333333 -8 1 C-5.10765685 0.17361624 -3.11257569 0 0 0 Z " fill="#B6A384" transform="translate(135,110)"/>
<path d="M0 0 C1.4540625 0.0309375 1.4540625 0.0309375 2.9375 0.0625 C1.9375 2.0625 1.9375 2.0625 -0.0625 3.0625 C-1.0525 3.7225 -2.0425 4.3825 -3.0625 5.0625 C-3.0625 4.4025 -3.0625 3.7425 -3.0625 3.0625 C-4.7125 3.0625 -6.3625 3.0625 -8.0625 3.0625 C-7.423125 2.753125 -6.78375 2.44375 -6.125 2.125 C-2.0825 0.0425 -2.0825 0.0425 0 0 Z " fill="#505864" transform="translate(133.0625,75.9375)"/>
<path d="M0 0 C0.99 0 1.98 0 3 0 C2.34 1.65 1.68 3.3 1 5 C1.66 5.33 2.32 5.66 3 6 C1.35 6 -0.3 6 -2 6 C-1.49396008 3.83125748 -1.00016187 2.00032373 0 0 Z " fill="#AB5450" transform="translate(80,134)"/>
<path d="M0 0 C0.33 0 0.66 0 1 0 C1 1.98 1 3.96 1 6 C2.65 6 4.3 6 6 6 C6 6.33 6 6.66 6 7 C1.545 7.495 1.545 7.495 -3 8 C-3 7.34 -3 6.68 -3 6 C-2.01 6 -1.02 6 0 6 C0 4.02 0 2.04 0 0 Z " fill="#944C46" transform="translate(119,130)"/>
<path d="M0 0 C2.475 0.495 2.475 0.495 5 1 C5 2.32 5 3.64 5 5 C2.525 4.01 2.525 4.01 0 3 C0 2.01 0 1.02 0 0 Z " fill="#D0BF96" transform="translate(99,119)"/>
<path d="M0 0 C2.97 0 5.94 0 9 0 C8.01 1.485 8.01 1.485 7 3 C4.69 2.67 2.38 2.34 0 2 C0 1.34 0 0.68 0 0 Z " fill="#A49174" transform="translate(87,119)"/>
<path d="M0 0 C2.97 0.495 2.97 0.495 6 1 C6 2.65 6 4.3 6 6 C5.34 5.67 4.68 5.34 4 5 C4 4.34 4 3.68 4 3 C2.68 3 1.36 3 0 3 C0 2.01 0 1.02 0 0 Z " fill="#B29870" transform="translate(75,119)"/>
<path d="M0 0 C1.5625 1.0625 1.5625 1.0625 3 3 C2.6875 6.6875 2.6875 6.6875 2 10 C1.67 10 1.34 10 1 10 C0.63720544 8.71073008 0.28503302 7.41846728 -0.0625 6.125 C-0.35833984 5.04605469 -0.35833984 5.04605469 -0.66015625 3.9453125 C-1 2 -1 2 0 0 Z " fill="#4C545F" transform="translate(211,183)"/>
<path d="M0 0 C-1.90401138 1.90401138 -3.33425686 2.93520439 -6.046875 3.19921875 C-8.03233273 3.1886578 -10.0169914 3.09915043 -12 3 C-7.86112344 0.24074896 -4.92824278 -0.13689563 0 0 Z " fill="#8B939B" transform="translate(184,38)"/>
</svg>
